<svg width="20" height="20" viewBox="0 0 20 20" fill="none" xmlns="http://www.w3.org/2000/svg">
<path d="M1.91667 17.5C1.68056 17.5 1.5 17.3958 1.375 17.1875C1.25 16.9792 1.25 16.7708 1.375 16.5625L9.45833 2.60416C9.58333 2.39583 9.76389 2.29166 10 2.29166C10.2361 2.29166 10.4167 2.39583 10.5417 2.60416L18.625 16.5625C18.75 16.7708 18.75 16.9792 18.625 17.1875C18.5 17.3958 18.3194 17.5 18.0833 17.5H1.91667ZM10.0833 8.08333C9.90278 8.08333 9.75347 8.14236 9.63542 8.26041C9.51736 8.37847 9.45833 8.52777 9.45833 8.70833V12.125C9.45833 12.3056 9.51736 12.4549 9.63542 12.5729C9.75347 12.691 9.90278 12.75 10.0833 12.75C10.2639 12.75 10.4132 12.691 10.5312 12.5729C10.6493 12.4549 10.7083 12.3056 10.7083 12.125V8.70833C10.7083 8.52777 10.6493 8.37847 10.5312 8.26041C10.4132 8.14236 10.2639 8.08333 10.0833 8.08333ZM10.0833 15.0625C10.2639 15.0625 10.4132 15.0035 10.5312 14.8854C10.6493 14.7674 10.7083 14.6181 10.7083 14.4375C10.7083 14.2569 10.6493 14.1076 10.5312 13.9896C10.4132 13.8715 10.2639 13.8125 10.0833 13.8125C9.90278 13.8125 9.75347 13.8715 9.63542 13.9896C9.51736 14.1076 9.45833 14.2569 9.45833 14.4375C9.45833 14.6181 9.51736 14.7674 9.63542 14.8854C9.75347 15.0035 9.90278 15.0625 10.0833 15.0625Z" fill="red"/>
</svg>
