<svg width="20" height="20" viewBox="0 0 20 20" fill="none" xmlns="http://www.w3.org/2000/svg">
<path d="M9.56248 16.2083C9.45137 16.0972 9.39581 15.9514 9.39581 15.7708C9.39581 15.5903 9.45137 15.4444 9.56248 15.3333L14.2708 10.625H3.95831C3.77776 10.625 3.62845 10.566 3.5104 10.4479C3.39234 10.3299 3.33331 10.1806 3.33331 10C3.33331 9.81944 3.39234 9.67014 3.5104 9.55208C3.62845 9.43402 3.77776 9.375 3.95831 9.375H14.2708L9.56248 4.66666C9.45137 4.55555 9.39581 4.40625 9.39581 4.21875C9.39581 4.03125 9.45137 3.88194 9.56248 3.77083C9.67359 3.65972 9.81942 3.60416 9.99998 3.60416C10.1805 3.60416 10.3264 3.65972 10.4375 3.77083L16.2291 9.5625C16.2986 9.63194 16.3472 9.70139 16.375 9.77083C16.4028 9.84028 16.4166 9.91666 16.4166 10C16.4166 10.0694 16.4028 10.1424 16.375 10.2187C16.3472 10.2951 16.2986 10.3681 16.2291 10.4375L10.4375 16.2292C10.3264 16.3403 10.1805 16.3924 9.99998 16.3854C9.81942 16.3785 9.67359 16.3194 9.56248 16.2083Z" fill="white"/>
</svg>
