<svg width="24" height="24" viewBox="0 0 24 24" fill="none" xmlns="http://www.w3.org/2000/svg">
<path d="M10.95 12L6.38384 7.43381C6.23384 7.28381 6.15884 7.10881 6.15884 6.90881C6.15884 6.70881 6.23384 6.53381 6.38384 6.38381C6.53384 6.23381 6.70884 6.15881 6.90884 6.15881C7.10884 6.15881 7.28384 6.23381 7.43384 6.38381L12 10.95L16.5662 6.38382C16.7162 6.23382 16.8912 6.15882 17.0912 6.15882C17.2912 6.15882 17.4662 6.23382 17.6162 6.38382C17.7662 6.53382 17.8412 6.70882 17.8412 6.90882C17.8412 7.10882 17.7662 7.28382 17.6162 7.43382L13.05 12L17.6162 16.5662C17.7662 16.7162 17.8412 16.8912 17.8412 17.0912C17.8412 17.2912 17.7662 17.4662 17.6162 17.6162C17.4662 17.7662 17.2912 17.8412 17.0912 17.8412C16.8912 17.8412 16.7162 17.7662 16.5662 17.6162L12 13.05L7.43385 17.6162C7.28385 17.7662 7.10885 17.8412 6.90885 17.8412C6.70885 17.8412 6.53385 17.7662 6.38385 17.6162C6.23385 17.4662 6.15885 17.2912 6.15885 17.0912C6.15885 16.8912 6.23385 16.7162 6.38385 16.5662L10.95 12Z" fill="white"/>
</svg>
