<svg width="24" height="24" viewBox="0 0 24 24" fill="none" xmlns="http://www.w3.org/2000/svg">
<path d="M12 22.2001C10.5833 22.2001 9.25399 21.9334 8.01199 21.4C6.77065 20.8667 5.69165 20.1417 4.77499 19.225C3.85832 18.3084 3.13332 17.2294 2.59999 15.988C2.06665 14.746 1.79999 13.4167 1.79999 12C1.79999 10.5834 2.06665 9.25405 2.59999 8.01205C3.13332 6.77072 3.85832 5.69172 4.77499 4.77505C5.69165 3.85838 6.77065 3.13338 8.01199 2.60005C9.25399 2.06672 10.5833 1.80005 12 1.80005C13.4167 1.80005 14.746 2.06672 15.988 2.60005C17.2293 3.13338 18.3083 3.85838 19.225 4.77505C20.1417 5.69172 20.8667 6.77072 21.4 8.01205C21.9333 9.25405 22.2 10.5834 22.2 12C22.2 13.4167 21.9333 14.746 21.4 15.988C20.8667 17.2294 20.1417 18.3084 19.225 19.225C18.3083 20.1417 17.2293 20.8667 15.988 21.4C14.746 21.9334 13.4167 22.2001 12 22.2001Z" fill="white"/>
<path fill-rule="evenodd" clip-rule="evenodd" d="M16.9596 9.45962L10.5 15.9192L7.04041 12.4596L7.95964 11.5404L10.5 14.0808L16.0404 8.54038L16.9596 9.45962Z" fill="#12B76A"/>
</svg>
