<svg width="20" height="20" viewBox="0 0 20 20" fill="none" xmlns="http://www.w3.org/2000/svg">
<g id="Icon=Email">
<path id="Vector" d="M2.91675 16.6667C2.58341 16.6667 2.29175 16.5417 2.04175 16.2917C1.79175 16.0417 1.66675 15.75 1.66675 15.4167V4.58333C1.66675 4.24999 1.79175 3.95833 2.04175 3.70833C2.29175 3.45833 2.58341 3.33333 2.91675 3.33333H17.0834C17.4167 3.33333 17.7084 3.45833 17.9584 3.70833C18.2084 3.95833 18.3334 4.24999 18.3334 4.58333V15.4167C18.3334 15.75 18.2084 16.0417 17.9584 16.2917C17.7084 16.5417 17.4167 16.6667 17.0834 16.6667H2.91675ZM10.0001 10.25C10.0695 10.25 10.1286 10.2396 10.1772 10.2187C10.2258 10.1979 10.2779 10.1736 10.3334 10.1458L16.8751 5.87499C16.9445 5.83333 16.9966 5.77777 17.0313 5.70833C17.0661 5.63888 17.0834 5.56249 17.0834 5.47916C17.0834 5.29861 17.0036 5.15624 16.8438 5.05208C16.6841 4.94791 16.5209 4.95138 16.3542 5.06249L10.0001 9.12499L3.66675 5.06249C3.50008 4.95138 3.33341 4.94444 3.16675 5.04166C3.00008 5.13888 2.91675 5.27777 2.91675 5.45833C2.91675 5.54166 2.93758 5.62152 2.97925 5.69791C3.02091 5.7743 3.06953 5.83333 3.12508 5.87499L9.66675 10.1458C9.7223 10.1736 9.77439 10.1979 9.823 10.2187C9.87161 10.2396 9.93064 10.25 10.0001 10.25Z" fill="#4a1ff6"/>
</g>
</svg>
