<svg width="24" height="24" viewBox="0 0 24 24" fill="none" xmlns="http://www.w3.org/2000/svg">
<g id="Icons">
<path id="Vector" d="M12.0003 17.1L7.35025 19.9C7.21692 19.9833 7.07525 20.0208 6.92525 20.0125C6.77525 20.0042 6.64192 19.9583 6.52525 19.875C6.40858 19.7917 6.32108 19.6833 6.26275 19.55C6.20442 19.4167 6.19192 19.2667 6.22525 19.1L7.45025 13.8L3.35025 10.225C3.21692 10.1083 3.13775 9.97917 3.11275 9.8375C3.08775 9.69583 3.09192 9.55833 3.12525 9.425C3.15858 9.29167 3.23358 9.17917 3.35025 9.0875C3.46692 8.99583 3.60858 8.94167 3.77525 8.925L9.20025 8.45L11.3003 3.45C11.3669 3.3 11.4669 3.1875 11.6003 3.1125C11.7336 3.0375 11.8669 3 12.0003 3C12.1336 3 12.2669 3.0375 12.4003 3.1125C12.5336 3.1875 12.6336 3.3 12.7003 3.45L14.8003 8.45L20.2253 8.925C20.3919 8.94167 20.5336 8.99583 20.6503 9.0875C20.7669 9.17917 20.8419 9.29167 20.8753 9.425C20.9086 9.55833 20.9128 9.69583 20.8878 9.8375C20.8628 9.97917 20.7836 10.1083 20.6503 10.225L16.5503 13.8L17.7753 19.1C17.8086 19.2667 17.7961 19.4167 17.7378 19.55C17.6794 19.6833 17.5919 19.7917 17.4753 19.875C17.3586 19.9583 17.2253 20.0042 17.0753 20.0125C16.9253 20.0208 16.7836 19.9833 16.6503 19.9L12.0003 17.1Z" fill="#4a1ff6"/>
</g>
</svg>
